<?xml version="1.0" encoding="iso-8859-1"?>
<!-- Generator: Adobe Illustrator 19.0.0, SVG Export Plug-In . SVG Version: 6.00 Build 0)  -->
<svg version="1.1" id="Layer_1" xmlns="http://www.w3.org/2000/svg" xmlns:xlink="http://www.w3.org/1999/xlink" x="0px" y="0px"
	 viewBox="0 0 488 488" style="enable-background:new 0 0 488 488;" xml:space="preserve">
<polygon style="fill:#5E5E5E;" points="143.2,488 0,344.8 0,143.2 143.2,0 344.8,0 488,143.2 488,344.8 344.8,488 "/>
<polygon style="fill:#FFFFFF;" points="148,475.2 12.8,340 12.8,148 148,12.8 340,12.8 475.2,148 475.2,340 340,475.2 "/>
<polygon style="fill:#E4EAEA;" points="332,12.8 12.8,332 12.8,340 148,475.2 340,475.2 475.2,340 475.2,148 340,12.8 "/>
<polyline style="fill:#DAE0E0;" points="148,475.2 340,475.2 475.2,340 475.2,148 "/>
<g>
	<path style="fill:#5E5E5E;" d="M284,54.4c0,3.2-2.4,5.6-5.6,5.6h-69.6c-2.4,0-4.8-2.4-4.8-5.6l0,0c0-3.2,2.4-5.6,5.6-5.6h69.6
		C281.6,49.6,284,52,284,54.4L284,54.4z"/>
	<path style="fill:#5E5E5E;" d="M284,73.6c0,3.2-2.4,5.6-5.6,5.6h-69.6c-3.2,0-5.6-2.4-5.6-5.6l0,0c0-3.2,2.4-5.6,5.6-5.6h69.6
		C281.6,68,284,70.4,284,73.6L284,73.6z"/>
	<path style="fill:#5E5E5E;" d="M284,92c0,3.2-2.4,5.6-5.6,5.6h-69.6c-3.2,0-5.6-2.4-5.6-5.6l0,0c0-3.2,2.4-5.6,5.6-5.6h69.6
		C281.6,86.4,284,88.8,284,92L284,92z"/>
	<path style="fill:#5E5E5E;" d="M284,396c0,3.2-2.4,5.6-5.6,5.6h-69.6c-3.2,0-5.6-2.4-5.6-5.6l0,0c0-3.2,2.4-5.6,5.6-5.6h69.6
		C281.6,390.4,284,392.8,284,396L284,396z"/>
	<path style="fill:#5E5E5E;" d="M284,414.4c0,3.2-2.4,5.6-5.6,5.6h-69.6c-3.2,0-5.6-2.4-5.6-5.6l0,0c0-3.2,2.4-5.6,5.6-5.6h69.6
		C281.6,408.8,284,411.2,284,414.4L284,414.4z"/>
	<path style="fill:#5E5E5E;" d="M284,433.6c0,3.2-2.4,5.6-5.6,5.6h-69.6c-3.2,0-5.6-2.4-5.6-5.6l0,0c0-3.2,2.4-5.6,5.6-5.6h69.6
		C281.6,428,284,430.4,284,433.6L284,433.6z"/>
	<path style="fill:#5E5E5E;" d="M138.4,81.6c2.4,2.4,2.4,5.6,0,8l-48.8,48.8c-2.4,2.4-5.6,2.4-8,0l0,0c-2.4-2.4-2.4-5.6,0-8
		l48.8-48.8C132.8,80,136.8,80,138.4,81.6L138.4,81.6z"/>
	<path style="fill:#5E5E5E;" d="M152,95.2c2.4,2.4,2.4,5.6,0,8L103.2,152c-2.4,2.4-5.6,2.4-8,0l0,0c-2.4-2.4-2.4-5.6,0-8L144,95.2
		C146.4,92.8,149.6,92.8,152,95.2L152,95.2z"/>
	<path style="fill:#5E5E5E;" d="M164.8,108c2.4,2.4,2.4,5.6,0,8L116,164.8c-2.4,2.4-5.6,2.4-8,0l0,0c-2.4-2.4-2.4-5.6,0-8l48.8-48.8
		C159.2,106.4,163.2,106.4,164.8,108L164.8,108z"/>
	<path style="fill:#5E5E5E;" d="M380,323.2c2.4,2.4,2.4,5.6,0,8L330.4,380c-2.4,2.4-5.6,2.4-8,0l0,0c-2.4-2.4-2.4-5.6,0-8l48.8-48.8
		C374.4,320.8,377.6,320.8,380,323.2L380,323.2z"/>
	<path style="fill:#5E5E5E;" d="M392.8,336c2.4,2.4,2.4,5.6,0,8L344,392.8c-2.4,2.4-5.6,2.4-8,0l0,0c-2.4-2.4-2.4-5.6,0-8l48.8-48.8
		C387.2,334.4,391.2,334.4,392.8,336L392.8,336z"/>
	<path style="fill:#5E5E5E;" d="M406.4,349.6c2.4,2.4,2.4,5.6,0,8l-48.8,48.8c-2.4,2.4-5.6,2.4-8,0l0,0c-2.4-2.4-2.4-5.6,0-8
		l48.8-48.8C400.8,347.2,404,347.2,406.4,349.6L406.4,349.6z"/>
	<path style="fill:#5E5E5E;" d="M54.4,204c3.2,0,5.6,2.4,5.6,5.6v69.6c0,2.4-2.4,4.8-5.6,4.8l0,0c-3.2,0-5.6-2.4-5.6-5.6v-69.6
		C49.6,206.4,52,204,54.4,204L54.4,204z"/>
	<path style="fill:#5E5E5E;" d="M73.6,204c3.2,0,5.6,2.4,5.6,5.6v69.6c0,3.2-2.4,5.6-5.6,5.6l0,0c-3.2,0-5.6-2.4-5.6-5.6v-69.6
		C68,206.4,70.4,204,73.6,204L73.6,204z"/>
	<path style="fill:#5E5E5E;" d="M92,204c3.2,0,5.6,2.4,5.6,5.6v69.6c0,3.2-2.4,5.6-5.6,5.6l0,0c-3.2,0-5.6-2.4-5.6-5.6v-69.6
		C86.4,206.4,88.8,204,92,204L92,204z"/>
	<path style="fill:#5E5E5E;" d="M396,204c3.2,0,5.6,2.4,5.6,5.6v69.6c0,3.2-2.4,5.6-5.6,5.6l0,0c-3.2,0-5.6-2.4-5.6-5.6v-69.6
		C390.4,206.4,392.8,204,396,204L396,204z"/>
	<path style="fill:#5E5E5E;" d="M414.4,204c3.2,0,5.6,2.4,5.6,5.6v69.6c0,3.2-2.4,5.6-5.6,5.6l0,0c-3.2,0-5.6-2.4-5.6-5.6v-69.6
		C408.8,206.4,411.2,204,414.4,204L414.4,204z"/>
	<path style="fill:#5E5E5E;" d="M433.6,204c3.2,0,5.6,2.4,5.6,5.6v69.6c0,3.2-2.4,5.6-5.6,5.6l0,0c-3.2,0-5.6-2.4-5.6-5.6v-69.6
		C428,206.4,430.4,204,433.6,204L433.6,204z"/>
	<path style="fill:#5E5E5E;" d="M81.6,349.6c2.4-2.4,5.6-2.4,8,0l48.8,48.8c2.4,2.4,2.4,5.6,0,8l0,0c-2.4,2.4-5.6,2.4-8,0
		l-48.8-48.8C80,355.2,80,351.2,81.6,349.6L81.6,349.6z"/>
	<path style="fill:#5E5E5E;" d="M95.2,336c2.4-2.4,5.6-2.4,8,0l48.8,48.8c2.4,2.4,2.4,5.6,0,8l0,0c-2.4,2.4-5.6,2.4-8,0L95.2,344
		C92.8,341.6,92.8,338.4,95.2,336L95.2,336z"/>
	<path style="fill:#5E5E5E;" d="M108,323.2c2.4-2.4,5.6-2.4,8,0l48.8,48.8c2.4,2.4,2.4,5.6,0,8l0,0c-2.4,2.4-5.6,2.4-8,0L108,330.4
		C106.4,328.8,106.4,324.8,108,323.2L108,323.2z"/>
	<path style="fill:#5E5E5E;" d="M323.2,108c2.4-2.4,5.6-2.4,8,0l48.8,48.8c2.4,2.4,2.4,5.6,0,8l0,0c-2.4,2.4-5.6,2.4-8,0L323.2,116
		C320.8,113.6,320.8,110.4,323.2,108L323.2,108z"/>
	<path style="fill:#5E5E5E;" d="M336,95.2c2.4-2.4,5.6-2.4,8,0l48.8,48.8c2.4,2.4,2.4,5.6,0,8l0,0c-2.4,2.4-5.6,2.4-8,0L336,103.2
		C334.4,100.8,334.4,96.8,336,95.2L336,95.2z"/>
	<path style="fill:#5E5E5E;" d="M349.6,81.6c2.4-2.4,5.6-2.4,8,0l48.8,48.8c2.4,2.4,2.4,5.6,0,8l0,0c-2.4,2.4-5.6,2.4-8,0
		l-48.8-48.8C347.2,87.2,347.2,84,349.6,81.6L349.6,81.6z"/>
	<circle style="fill:#5E5E5E;" cx="244" cy="244" r="103.2"/>
</g>
<g>
	<path style="fill:#484949;" d="M316.8,171.2c40,40,40,105.6,0,145.6s-105.6,40-145.6,0"/>
	<path style="fill:#484949;" d="M173.6,234.4c-2.4,0-4.8,0-6.4,0.8c-0.8,0-0.8,0.8-0.8,0.8v24c0,0.8,0.8,0.8,0.8,0.8
		c1.6,0,4,0,5.6,0c4.8,0,8.8-1.6,11.2-4s4-5.6,4-10.4c0-4-1.6-7.2-4-9.6C182.4,236,178.4,234.4,173.6,234.4z M173.6,256.8
		c-0.8,0-1.6,0-2.4,0V240c0.8,0,1.6,0,2.4,0c3.2,0,4.8,0.8,6.4,2.4c1.6,1.6,2.4,3.2,2.4,5.6C182.4,253.6,180,256.8,173.6,256.8z"/>
	<path style="fill:#484949;" d="M212.8,235.2h-3.2c-0.8,0-0.8,0.8-0.8,0.8v8.8h-9.6V236c0-0.8-0.8-0.8-0.8-0.8h-3.2
		c-0.8,0-0.8,0.8-0.8,0.8v24c0,0.8,0.8,0.8,0.8,0.8h3.2c0.8,0,0.8-0.8,0.8-0.8v-10.4h9.6V260c0,0.8,0.8,0.8,0.8,0.8h3.2
		c0.8,0,0.8-0.8,0.8-0.8v-24C213.6,235.2,213.6,235.2,212.8,235.2z"/>
	<path style="fill:#484949;" d="M232.8,236c0-0.8-0.8-0.8-0.8-0.8h-4c-0.8,0-0.8,0-0.8,0.8l-8,24v0.8l0.8,0.8h3.2
		c0.8,0,0.8,0,0.8-0.8l2.4-7.2h7.2l2.4,7.2c0,0.8,0.8,0.8,0.8,0.8h3.2c0,0,0.8,0,0.8-0.8V260L232.8,236z M232,248.8h-4l1.6-5.6v-0.8
		v0.8L232,248.8z"/>
	<path style="fill:#484949;" d="M262.4,253.6c-0.8-2.4-1.6-3.2-2.4-4.8c2.4-1.6,3.2-4,3.2-6.4s-0.8-4-2.4-5.6s-4-2.4-8-2.4
		c-2.4,0-4.8,0-6.4,0.8c-0.8,0-0.8,0.8-0.8,0.8v24c0,0.8,0.8,0.8,0.8,0.8h3.2c0.8,0,0.8-0.8,0.8-0.8v-9.6h1.6c2.4,0,3.2,0.8,4,4
		c0.8,4,1.6,5.6,1.6,6.4l0.8,0.8h3.2c0,0,0.8,0,0.8-0.8V260C264,259.2,263.2,256,262.4,253.6z M257.6,242.4c0,2.4-1.6,3.2-4,3.2
		h-2.4v-6.4c0.8,0,0.8,0,1.6,0C257.6,239.2,257.6,241.6,257.6,242.4z"/>
	<path style="fill:#484949;" d="M292.8,235.2h-4c-0.8,0-0.8,0-0.8,0.8l-4,12c-0.8,1.6-0.8,3.2-1.6,4.8c-0.8-1.6-0.8-3.2-1.6-4.8
		l-4.8-12c0-0.8-0.8-0.8-0.8-0.8h-4c-0.8,0-0.8,0.8-0.8,0.8l-1.6,24v0.8h0.8h3.2c0.8,0,0.8-0.8,0.8-0.8l0.8-10.4c0-1.6,0-2.4,0-4
		c0,0.8,0.8,1.6,0.8,3.2l4,11.2c0,0.8,0.8,0.8,0.8,0.8h2.4c0.8,0,0.8,0,0.8-0.8l4-12c0.8-0.8,0.8-2.4,0.8-3.2c0,1.6,0,3.2,0,4
		l0.8,10.4c0,0.8,0.8,0.8,0.8,0.8h3.2h0.8v-0.8l-1.6-24C293.6,235.2,293.6,235.2,292.8,235.2z"/>
	<path style="fill:#484949;" d="M321.6,260l-8-24c0-0.8-0.8-0.8-0.8-0.8h-4c-0.8,0-0.8,0-0.8,0.8l-8,24v0.8l0.8,0.8h3.2
		c0.8,0,0.8,0,0.8-0.8l2.4-7.2h7.2l2.4,7.2c0,0.8,0.8,0.8,0.8,0.8h3.2c0,0,0.8,0,0.8-0.8V260z M312.8,248.8H308l1.6-5.6v-0.8v0.8
		L312.8,248.8z"/>
</g>
<g>
	<path style="fill:#E4EAEA;" d="M173.6,230.4c-2.4,0-4.8,0-6.4,0.8c-0.8,0-0.8,0.8-0.8,0.8v24c0,0.8,0.8,0.8,0.8,0.8
		c1.6,0,4,0,5.6,0c4.8,0,8.8-1.6,11.2-4s4-5.6,4-10.4c0-4-1.6-7.2-4-9.6C182.4,232,178.4,230.4,173.6,230.4z M173.6,252.8
		c-0.8,0-1.6,0-2.4,0V236c0.8,0,1.6,0,2.4,0c3.2,0,4.8,0.8,6.4,2.4c1.6,1.6,2.4,3.2,2.4,5.6C182.4,249.6,180,252.8,173.6,252.8z"/>
	<path style="fill:#E4EAEA;" d="M212.8,230.4h-3.2c-0.8,0-0.8,0.8-0.8,0.8v8.8h-9.6v-8.8c0-0.8-0.8-0.8-0.8-0.8h-3.2
		c-0.8,0-0.8,0.8-0.8,0.8v24c0,0.8,0.8,0.8,0.8,0.8h3.2c0.8,0,0.8-0.8,0.8-0.8v-10.4h9.6v10.4c0,0.8,0.8,0.8,0.8,0.8h3.2
		c0.8,0,0.8-0.8,0.8-0.8v-24C213.6,231.2,213.6,230.4,212.8,230.4z"/>
	<path style="fill:#E4EAEA;" d="M232.8,231.2c0-0.8-0.8-0.8-0.8-0.8h-4c-0.8,0-0.8,0-0.8,0.8l-8,24v0.8l0.8,0.8h3.2
		c0.8,0,0.8,0,0.8-0.8l2.4-7.2h7.2l2.4,7.2c0,0.8,0.8,0.8,0.8,0.8h3.2c0,0,0.8,0,0.8-0.8v-0.8L232.8,231.2z M232,244.8h-4l1.6-5.6
		v-0.8v0.8L232,244.8z"/>
	<path style="fill:#E4EAEA;" d="M262.4,248.8c-0.8-2.4-1.6-3.2-2.4-4.8c2.4-1.6,3.2-4,3.2-6.4s-0.8-4-2.4-5.6s-4-2.4-8-2.4
		c-2.4,0-4.8,0-6.4,0.8c-0.8,0-0.8,0.8-0.8,0.8v24c0,0.8,0.8,0.8,0.8,0.8h3.2c0.8,0,0.8-0.8,0.8-0.8v-9.6h1.6c2.4,0,3.2,0.8,4,4
		c0.8,4,1.6,5.6,1.6,6.4l0.8,0.8h3.2c0,0,0.8,0,0.8-0.8s0-0.8,0-0.8C264,254.4,263.2,252,262.4,248.8z M257.6,238.4
		c0,2.4-1.6,3.2-4,3.2h-2.4v-6.4c0.8,0,0.8,0,1.6,0C257.6,235.2,257.6,237.6,257.6,238.4z"/>
	<path style="fill:#E4EAEA;" d="M292.8,230.4h-4c-0.8,0-0.8,0-0.8,0.8l-4,12c-0.8,1.6-0.8,3.2-1.6,4.8c-0.8-1.6-0.8-3.2-1.6-4.8
		l-4.8-12c0-0.8-0.8-0.8-0.8-0.8h-4c-0.8,0-0.8,0.8-0.8,0.8l-1.6,24v0.8h0.8h3.2c0.8,0,0.8-0.8,0.8-0.8l0.8-10.4c0-1.6,0-2.4,0-4
		c0,0.8,0.8,1.6,0.8,3.2l4,11.2c0,0.8,0.8,0.8,0.8,0.8h2.4c0.8,0,0.8,0,0.8-0.8l4-12c0.8-0.8,0.8-2.4,0.8-3.2c0,1.6,0,3.2,0,4
		l0.8,10.4c0,0.8,0.8,0.8,0.8,0.8h3.2h0.8v-0.8l-1.6-24C293.6,231.2,293.6,230.4,292.8,230.4z"/>
	<path style="fill:#E4EAEA;" d="M321.6,256l-8-24c0-0.8-0.8-0.8-0.8-0.8h-4c-0.8,0-0.8,0-0.8,0.8l-8,24v0.8l0.8,0.8h3.2
		c0.8,0,0.8,0,0.8-0.8l2.4-7.2h7.2l2.4,7.2c0,0.8,0.8,0.8,0.8,0.8h3.2c0,0,0.8,0,0.8-0.8V256z M312.8,244.8H308l1.6-5.6v-0.8v0.8
		L312.8,244.8z"/>
</g>
<g>
</g>
<g>
</g>
<g>
</g>
<g>
</g>
<g>
</g>
<g>
</g>
<g>
</g>
<g>
</g>
<g>
</g>
<g>
</g>
<g>
</g>
<g>
</g>
<g>
</g>
<g>
</g>
<g>
</g>
</svg>
